<svg xmlns="http://www.w3.org/2000/svg" width="119.642" height="21.709" viewBox="0 0 119.642 21.709">
  <path id="logo-default-br" d="M112.031,7.388c1.076-.089,2.242-.116,3.369-.116,2.654,0,4.238,1.026,4.238,3.926v7.254h-2.226l-.111-1.086h-.029a4.325,4.325,0,0,1-3.292,1.3c-1.881,0-3.376-1.218-3.376-3.632,0-2.245,1.872-4.336,6.558-3.342v-.654c0-1.294-.758-1.655-2.253-1.655-.917,0-1.7.062-2.879.163Zm5.132,6.025c-1.985-.505-3.97.115-3.97,1.65a1.481,1.481,0,0,0,1.683,1.571,3.864,3.864,0,0,0,2.288-.937ZM108.875,7.6l-2.476.016V18.453h2.476Zm-1.227-1.531a1.405,1.405,0,1,0-1.405-1.405A1.405,1.405,0,0,0,107.648,6.067Zm-3.631-2.811-2.476.287V18.453h2.476ZM91.571,7.388c1.076-.089,2.242-.116,3.369-.116,2.654,0,4.238,1.026,4.238,3.926v7.254H96.952l-.111-1.086h-.029a4.325,4.325,0,0,1-3.292,1.3c-1.881,0-3.376-1.218-3.376-3.632,0-2.245,1.872-4.336,6.558-3.342v-.654c0-1.294-.758-1.655-2.253-1.655-.917,0-1.7.062-2.879.163ZM96.7,13.413c-1.985-.505-3.97.115-3.97,1.65a1.481,1.481,0,0,0,1.683,1.571A3.864,3.864,0,0,0,96.7,15.7ZM83.608,7.6V18.453h2.476V13.022c0-1.363,1.039-2.864,3.3-3.307V7.435A4.8,4.8,0,0,0,85.95,9.346h-.022L85.752,7.6Zm-11.9,5.483V12.97c0-3.628,1.669-5.7,5.119-5.7,3.427,0,5.1,2.07,5.1,5.7v.111c0,3.628-1.669,5.7-5.1,5.7C73.379,18.778,71.71,16.709,71.71,13.081Zm5.113-3.746c-1.753,0-2.562,1.189-2.562,3.674s.809,3.652,2.562,3.652,2.54-1.164,2.54-3.652S78.576,9.335,76.823,9.335ZM65.45,4.629V14.9c0,2.5.758,3.881,3.591,3.881a7.664,7.664,0,0,0,1.421-.151V16.585a4.156,4.156,0,0,1-.975.132c-.979,0-1.561-.224-1.561-2.119V9.606h2.536V7.6H67.926V4.342l-2.476.287Zm-7.55,8.4c.007-2.372,1.034-3.636,3.079-3.636a19.268,19.268,0,0,1,2.539.214V7.6a15.551,15.551,0,0,0-2.853-.271c-3.05,0-5.344,1.679-5.353,5.7.009,4.02,2.3,5.7,5.353,5.7a15.553,15.553,0,0,0,2.853-.271V16.447a19.269,19.269,0,0,1-2.539.214c-2.045,0-3.072-1.265-3.079-3.636Zm-14.377.056V12.97c0-3.628,1.669-5.7,5.119-5.7,3.427,0,5.1,2.07,5.1,5.7v.111c0,3.628-1.669,5.7-5.1,5.7C45.193,18.778,43.524,16.709,43.524,13.081Zm5.113-3.746c-1.753,0-2.562,1.189-2.562,3.674s.809,3.652,2.562,3.652,2.54-1.164,2.54-3.652S50.39,9.335,48.637,9.335ZM30.39,18.453V3.256h3.817c5.319,0,7.794,1.6,7.794,7.6s-2.475,7.6-7.794,7.6Zm8.768-7.6c0-3.416-.693-5.141-4.359-5.141H33.1V16h1.7c3.665,0,4.359-1.724,4.359-5.141ZM12.639,17.546l3.582,4.164,3.571-2.595-3.486-5.768a10.333,10.333,0,0,0-3.667,4.2ZM7.489,21.7a21.776,21.776,0,0,1,15.3-11.777L21.423,5.708A24.535,24.535,0,0,0,2.574,18.541L7.489,21.7ZM8.562,7.385l-7.2-1.7L0,9.895l5,2.111A18.146,18.146,0,0,1,8.429,9.291a26,26,0,0,1,5.73-2.612L13.6,0H9.183L8.562,7.385Z" transform="translate(0.003)" fill="#fff"/>
</svg>
