<svg id="instagram" xmlns="http://www.w3.org/2000/svg" width="21.705" height="21.709" viewBox="0 0 21.705 21.709">
  <path id="Caminho_13" data-name="Caminho 13" d="M22.1,6.383a7.933,7.933,0,0,0-.5-2.634A5.561,5.561,0,0,0,18.417.573a7.953,7.953,0,0,0-2.633-.5C14.622.013,14.253,0,11.305,0S7.989.013,6.831.064A7.935,7.935,0,0,0,4.2.568,5.3,5.3,0,0,0,2.272,1.824,5.345,5.345,0,0,0,1.021,3.745a7.954,7.954,0,0,0-.5,2.633C.461,7.54.449,7.909.449,10.857s.013,3.316.064,4.474a7.932,7.932,0,0,0,.5,2.634,5.56,5.56,0,0,0,3.176,3.176,7.954,7.954,0,0,0,2.634.5c1.158.051,1.527.064,4.474.064s3.316-.013,4.474-.064a7.931,7.931,0,0,0,2.633-.5,5.553,5.553,0,0,0,3.177-3.176,7.959,7.959,0,0,0,.5-2.634c.051-1.158.064-1.527.064-4.474s0-3.316-.055-4.474Zm-1.955,8.863a5.95,5.95,0,0,1-.373,2.014,3.6,3.6,0,0,1-2.061,2.061,5.971,5.971,0,0,1-2.014.373c-1.145.051-1.488.064-4.385.064s-3.244-.013-4.385-.064a5.947,5.947,0,0,1-2.014-.373,3.34,3.34,0,0,1-1.247-.81,3.375,3.375,0,0,1-.81-1.247A5.972,5.972,0,0,1,2.48,15.25c-.051-1.145-.064-1.489-.064-4.385s.013-3.244.064-4.385a5.947,5.947,0,0,1,.373-2.014,3.3,3.3,0,0,1,.814-1.247,3.37,3.37,0,0,1,1.247-.81,5.975,5.975,0,0,1,2.014-.373c1.145-.051,1.489-.064,4.385-.064s3.244.013,4.385.064a5.95,5.95,0,0,1,2.014.373,3.338,3.338,0,0,1,1.247.81,3.374,3.374,0,0,1,.81,1.247,5.975,5.975,0,0,1,.373,2.014c.051,1.145.064,1.488.064,4.385s-.013,3.236-.064,4.381Zm0,0" transform="translate(-0.449 0)" fill="#fff"/>
  <path id="Caminho_14" data-name="Caminho 14" d="M130.526,124.5a5.577,5.577,0,1,0,5.577,5.577A5.578,5.578,0,0,0,130.526,124.5Zm0,9.194a3.618,3.618,0,1,1,3.618-3.618A3.618,3.618,0,0,1,130.526,133.694Zm0,0" transform="translate(-119.669 -119.22)" fill="#fff"/>
  <path id="Caminho_15" data-name="Caminho 15" d="M365.054,89.9a1.3,1.3,0,1,1-1.3-1.3A1.3,1.3,0,0,1,365.054,89.9Zm0,0" transform="translate(-347.098 -84.844)" fill="#fff"/>
</svg>
