<svg id="phone-call" xmlns="http://www.w3.org/2000/svg" width="21.709" height="21.709" viewBox="0 0 21.709 21.709">
  <g id="Grupo_56" data-name="Grupo 56" transform="translate(0 0)">
    <path id="Caminho_70" data-name="Caminho 70" d="M18.528,3.178a10.855,10.855,0,1,0,3.18,7.674A10.855,10.855,0,0,0,18.528,3.178ZM16.438,15.12h0v0l-.55.546a2.9,2.9,0,0,1-2.732.782,9.618,9.618,0,0,1-2.793-1.252,12.905,12.905,0,0,1-2.2-1.777,13,13,0,0,1-1.646-2,10.13,10.13,0,0,1-1.237-2.5A2.894,2.894,0,0,1,6,5.96l.644-.644a.459.459,0,0,1,.65,0h0L9.327,7.349a.459.459,0,0,1,0,.65h0L8.133,9.195a.973.973,0,0,0-.1,1.266,13.964,13.964,0,0,0,1.429,1.668,13.878,13.878,0,0,0,1.881,1.581.98.98,0,0,0,1.252-.109l1.154-1.172a.459.459,0,0,1,.65,0h0l2.037,2.041A.459.459,0,0,1,16.438,15.12Z" transform="translate(0 0)" fill="#fff"/>
  </g>
</svg>
