<svg id="whatsapp" xmlns="http://www.w3.org/2000/svg" width="21.615" height="21.709" viewBox="0 0 21.615 21.709">
  <path id="Caminho_4501" data-name="Caminho 4501" d="M.462,21.709a.462.462,0,0,1-.446-.584l1.411-5.154a10.765,10.765,0,1,1,9.423,5.559h0a10.786,10.786,0,0,1-4.981-1.223L.579,21.693a.465.465,0,0,1-.117.015Zm0,0" transform="translate(0 0.001)" fill="#e5e5e5"/>
  <path id="Caminho_4502" data-name="Caminho 4502" d="M10.894,31.68l1.461-5.337A10.3,10.3,0,1,1,21.283,31.5h0a10.294,10.294,0,0,1-4.923-1.254Zm5.714-3.3.313.185a8.551,8.551,0,0,0,4.358,1.194h0A8.562,8.562,0,1,0,14.03,25.75l.2.324-.865,3.159Zm0,0" transform="translate(-10.433 -10.433)" fill="#fff"/>
  <path id="Caminho_4503" data-name="Caminho 4503" d="M19.344,39.449,20.755,34.3a9.946,9.946,0,1,1,8.618,4.98h0a9.944,9.944,0,0,1-4.753-1.21Zm0,0" transform="translate(-18.524 -18.561)" fill="#64b161"/>
  <g id="Grupo_1107" data-name="Grupo 1107" transform="translate(0.462 0.462)">
    <path id="Caminho_4504" data-name="Caminho 4504" d="M10.894,31.68l1.461-5.337A10.3,10.3,0,1,1,21.283,31.5h0a10.294,10.294,0,0,1-4.923-1.254Zm5.714-3.3.313.185a8.551,8.551,0,0,0,4.358,1.194h0A8.562,8.562,0,1,0,14.03,25.75l.2.324-.865,3.159Zm0,0" transform="translate(-10.894 -10.895)" fill="#fff"/>
    <path id="Caminho_4505" data-name="Caminho 4505" d="M135.106,142.064c-.193-.429-.4-.437-.579-.445-.15-.006-.322-.006-.493-.006a.946.946,0,0,0-.686.322,2.885,2.885,0,0,0-.9,2.147,5.007,5.007,0,0,0,1.051,2.662,10.566,10.566,0,0,0,4.4,3.886c2.175.858,2.617.687,3.089.644a2.6,2.6,0,0,0,1.737-1.224,2.149,2.149,0,0,0,.15-1.224c-.064-.107-.236-.172-.493-.3s-1.523-.752-1.759-.837-.408-.129-.579.129-.665.837-.815,1.009-.3.194-.558.065a7.039,7.039,0,0,1-2.07-1.278,7.756,7.756,0,0,1-1.432-1.783c-.15-.257,0-.385.113-.525a7.768,7.768,0,0,0,.643-.88.474.474,0,0,0-.021-.451C135.835,143.846,135.335,142.573,135.106,142.064Zm0,0" transform="translate(-127.292 -136.071)" fill="#fff" fill-rule="evenodd"/>
  </g>
</svg>
